# xmcd
#
# Track frame offsets:
#	150
#	10051
#	25279
#	36395
#	45946
#	58232
#	68656
#	88537
#	101053
#	118477
#	128455
#
# Disc length: 1979 seconds
#
# Revision: 1
# Processed by: cddbd v1.5.2PL0 Copyright (c) Steve Scherf et al.
# Submitted via: audiograbber 1.83.01
#
DISCID=8e07b90b
DTITLE=Various Artist - Icon: Country Christmas
DYEAR=2017
DGENRE=Christmas
TTITLE0=George Strait - Santa Claus Is Coming To Town
TTITLE1=Trace Adkins - The Christmas Song 
TTITLE2=Trisha Yearwood - Let It Snow, Let It Snow, Let It Snow
TTITLE3=Reba McEntire - Up On The Rooftop
TTITLE4=Kenny Rogers - Christmas Is My Favorite Time Of Year
TTITLE5=Anne Murray - Jingle Bell Rock
TTITLE6=Josh Turner - The First Noel
TTITLE7=Vince Gill - It's The Most Wonderful Time Of The Year
TTITLE8=Gary Allan - Please Come Home For Christmas
TTITLE9=Joe Nichols - Old Toy Trains
TTITLE10=Lee Ann Womack - Have Yourself A Merry Little Christmas
EXTD=
EXTT0=
EXTT1=
EXTT2=
EXTT3=
EXTT4=
EXTT5=
EXTT6=
EXTT7=
EXTT8=
EXTT9=
EXTT10=
PLAYORDER=
